<svg xmlns="http://www.w3.org/2000/svg" viewBox="0 0 128 128" role="img" aria-labelledby="title">
  <title>Ghostcrawler icon</title>
  <defs>
    <linearGradient id="bg" x1="0%" x2="100%" y1="0%" y2="100%">
      <stop offset="0%" stop-color="#0f766e" />
      <stop offset="100%" stop-color="#164e63" />
    </linearGradient>
  </defs>
  <rect width="128" height="128" rx="30" fill="url(#bg)" />
  <path fill="#f8fafc" d="M64 22c-20.4 0-37 14.8-37 33.1 0 11.4 6.5 21.4 16.4 27.4V98l14.6-8.6c2 .3 4 .4 6 .4 20.4 0 37-14.8 37-33.1S84.4 22 64 22zm-15.3 34.6a7.5 7.5 0 1 1 0-15 7.5 7.5 0 0 1 0 15zm30.6 0a7.5 7.5 0 1 1 0-15 7.5 7.5 0 0 1 0 15z" />
  <path fill="#d1fae5" d="M43.8 79.2c6.1 3.4 12.9 5.2 20.2 5.2 12 0 22.8-4.9 30-12.8-2.8 13-15.1 22.9-30 22.9-8.3 0-15.9-3.1-21.7-8.2l1.5-7.1z" />
</svg>